<svg width="611.7487182617188px" height="122.021240234375px" xmlns="http://www.w3.org/2000/svg" viewBox="-55.874359130859375 13.9893798828125 611.7487182617188 122.021240234375" style="background: rgba(0, 0, 0, 0);" preserveAspectRatio="xMidYMid"><defs><filter id="editing-vr"><feFlood flood-color="#f00" flood-opacity="0.7" result="c1"></feFlood><feFlood flood-color="#00f" flood-opacity="0.7" result="c3"></feFlood><feComposite operator="in" in="c1" in2="SourceAlpha" result="text-c1"></feComposite><feComposite operator="in" in="c3" in2="SourceAlpha" result="text-c3"></feComposite><feOffset in="text-c1" dx="5" dy="-1" result="text1"></feOffset><feOffset in="text-c3" dx="-5" dy="1" result="text3"></feOffset><feBlend in="SourceGraphic" in2="text1" mode="multiply" result="text4"></feBlend><feBlend in="text4" in2="text3" mode="multiply"></feBlend></filter></defs><g filter="url(#editing-vr)"><g transform="translate(32.501561254262924, 104.78218841552734)"><path d="M24.96-4.80L24.96-4.80L24.96-4.80Q24.96-9.28 26.75-18.24L26.75-18.24L17.28-18.24L13.76 0L0.38 0L8.51-42.24L22.02-42.24L18.30-23.36L27.78-23.36L31.30-42.24L44.80-42.24L44.80-42.24Q43.90-37.50 42.75-32.19L42.75-32.19L40.58-21.76L40.58-21.76Q38.14-9.60 38.14-4.29L38.14-4.29L38.14-4.29Q38.14-2.11 38.85-0.90L38.85-0.90L38.85-0.90Q35.65 1.28 31.90 1.28L31.90 1.28L31.90 1.28Q28.16 1.28 26.56-0.51L26.56-0.51L26.56-0.51Q24.96-2.30 24.96-4.80ZM72.26-10.82L72.26-10.82L72.26-10.82Q73.86-9.73 73.86-7.33L73.86-7.33L73.86-7.33Q73.86-4.93 72.64-3.39L72.64-3.39L72.64-3.39Q71.42-1.86 69.44-0.83L69.44-0.83L69.44-0.83Q65.34 1.28 60.93 1.28L60.93 1.28L60.93 1.28Q56.51 1.28 53.92 0.32L53.92 0.32L53.92 0.32Q51.33-0.64 49.60-2.43L49.60-2.43L49.60-2.43Q46.21-5.82 46.21-12.03L46.21-12.03L46.21-12.03Q46.21-21.70 51.46-27.58L51.46-27.58L51.46-27.58Q57.09-33.92 66.88-33.92L66.88-33.92L66.88-33.92Q72.96-33.92 75.97-31.36L75.97-31.36L75.97-31.36Q78.21-29.44 78.21-26.30L78.21-26.30L78.21-26.30Q78.21-15.04 58.75-15.04L58.75-15.04L58.75-15.04Q58.50-13.38 58.50-11.97L58.50-11.97L58.50-11.97Q58.50-9.02 59.81-7.90L59.81-7.90L59.81-7.90Q61.12-6.78 63.55-6.78L63.55-6.78L63.55-6.78Q65.98-6.78 68.58-7.90L68.58-7.90L68.58-7.90Q71.17-9.02 72.26-10.82ZM59.20-17.79L59.20-17.79L59.20-17.79Q63.74-17.79 66.37-20.61L66.37-20.61L66.37-20.61Q68.99-23.30 68.99-27.58L68.99-27.58L68.99-27.58Q68.99-29.06 68.45-29.86L68.45-29.86L68.45-29.86Q67.90-30.66 66.82-30.66L66.82-30.66L66.82-30.66Q65.73-30.66 64.80-30.24L64.80-30.24L64.80-30.24Q63.87-29.82 62.91-28.42L62.91-28.42L62.91-28.42Q60.54-25.22 59.20-17.79ZM100.74-7.23L100.74-7.23L100.74-7.23Q97.41-3.78 91.33-3.78L91.33-3.78L91.33-3.78Q83.71-3.78 82.11-9.34L82.11-9.34L82.11-9.34Q81.60-11.01 81.60-12.86L81.60-12.86L81.60-12.86Q81.60-14.72 81.98-16.64L81.98-16.64L84.99-32.64L97.98-33.92L94.46-15.30L94.46-15.30Q94.34-14.46 94.14-13.57L94.14-13.57L94.14-13.57Q93.95-12.67 93.95-11.74L93.95-11.74L93.95-11.74Q93.95-10.82 94.27-10.21L94.27-10.21L94.27-10.21Q94.59-9.60 95.04-9.22L95.04-9.22L95.04-9.22Q95.81-8.70 97.18-8.70L97.18-8.70L97.18-8.70Q98.56-8.70 99.74-10.37L99.74-10.37L99.74-10.37Q100.93-12.03 101.50-14.91L101.50-14.91L105.02-32.64L117.63-33.92L112.83-8.77L112.83-8.77Q110.46 3.52 105.60 8.38L105.60 8.38L105.60 8.38Q103.10 10.88 99.87 11.87L99.87 11.87L99.87 11.87Q96.64 12.86 92.48 12.86L92.48 12.86L92.48 12.86Q85.76 12.86 81.92 10.75L81.92 10.75L81.92 10.75Q78.08 8.64 78.08 5.12L78.08 5.12L78.08 5.12Q78.08 2.50 80.06 0.99L80.06 0.99L80.06 0.99Q82.05-0.51 85.12-0.51L85.12-0.51L85.12-0.51Q87.81-0.51 89.86 0.64L89.86 0.64L89.86 0.64Q91.07 1.34 91.65 2.24L91.65 2.24L91.65 2.24Q90.18 3.52 90.18 5.63L90.18 5.63L90.18 5.63Q90.18 8.45 92.74 8.45L92.74 8.45L92.74 8.45Q96.96 8.45 99.39-1.28L99.39-1.28L99.39-1.28Q100.10-4.16 100.74-7.23ZM114.30 8.26L114.30 8.26L114.30 8.26Q119.23 2.94 119.23-3.71L119.23-3.71L119.23-3.71Q119.23-5.76 118.53-7.68L118.53-7.68L118.53-7.68Q119.30-8.19 120.83-8.54L120.83-8.54L120.83-8.54Q122.37-8.90 123.52-8.90L123.52-8.90L123.52-8.90Q126.34-8.90 128.00-7.39L128.00-7.39L128.00-7.39Q129.66-5.89 129.66-3.26L129.66-3.26L129.66-3.26Q129.66-0.64 128.64 1.47L128.64 1.47L128.64 1.47Q127.62 3.58 125.89 5.18L125.89 5.18L125.89 5.18Q122.18 8.64 117.06 8.64L117.06 8.64L117.06 8.64Q116.03 8.64 114.30 8.26ZM164.22-3.52L164.22-3.52L164.22-3.52Q162.24 1.28 155.90 1.28L155.90 1.28L155.90 1.28Q152.64 1.28 150.59-0.96L150.59-0.96L150.59-0.96Q148.86-2.94 148.86-4.93L148.86-4.93L148.86-4.93Q148.86-10.11 151.23-20.22L151.23-20.22L153.60-32.64L166.59-33.92L162.69-13.70L162.69-13.70Q161.60-8.96 161.60-7.30L161.60-7.30L161.60-7.30Q161.60-3.65 164.22-3.52ZM154.75-41.54L154.75-41.54L154.75-41.54Q154.75-44.03 156.83-45.38L156.83-45.38L156.83-45.38Q158.91-46.72 161.92-46.72L161.92-46.72L161.92-46.72Q164.93-46.72 166.75-45.38L166.75-45.38L166.75-45.38Q168.58-44.03 168.58-41.54L168.58-41.54L168.58-41.54Q168.58-39.04 166.56-37.76L166.56-37.76L166.56-37.76Q164.54-36.48 161.54-36.48L161.54-36.48L161.54-36.48Q158.53-36.48 156.64-37.76L156.64-37.76L156.64-37.76Q154.75-39.04 154.75-41.54ZM179.58-29.50L172.80-29.50L172.80-29.50Q175.17-37.70 175.30-46.34L175.30-46.34L177.15-46.59L177.15-46.59Q178.11-46.72 178.82-46.72L178.82-46.72L178.82-46.72Q181.63-46.72 183.17-45.34L183.17-45.34L183.17-45.34Q184.70-43.97 184.70-41.54L184.70-41.54L184.70-41.54Q184.70-38.98 183.55-36.16L183.55-36.16L183.55-36.16Q181.50-31.17 179.58-29.50L179.58-29.50ZM230.53 1.28L230.53 1.28L230.53 1.28Q222.78 1.28 222.78-4.74L222.78-4.74L222.78-4.74Q222.78-7.36 223.90-12.45L223.90-12.45L223.90-12.45Q225.02-17.54 225.41-19.58L225.41-19.58L225.41-19.58Q226.30-24.26 226.30-25.73L226.30-25.73L226.30-25.73Q226.30-28.99 223.87-28.99L223.87-28.99L223.87-28.99Q222.27-28.99 220.74-26.78L220.74-26.78L220.74-26.78Q219.20-24.58 218.50-20.16L218.50-20.16L214.53 0L202.05 1.28L205.50-16.13L205.50-16.13Q206.08-19.01 206.59-22.27L206.59-22.27L206.59-22.27Q207.10-25.54 207.10-26.05L207.10-26.05L207.10-26.05Q207.10-28.99 204.93-28.99L204.93-28.99L204.93-28.99Q203.46-28.99 201.86-26.82L201.86-26.82L201.86-26.82Q200.26-24.64 199.36-20.16L199.36-20.16L195.46 0L182.85 1.28L189.57-32.64L200-33.92L198.91-27.46L198.91-27.46Q200.58-30.91 203.65-32.42L203.65-32.42L203.65-32.42Q206.72-33.92 211.52-33.92L211.52-33.92L211.52-33.92Q214.27-33.92 216.06-32.58L216.06-32.58L216.06-32.58Q217.86-31.23 218.43-29.06L218.43-29.06L218.43-29.06Q219.52-31.30 222.30-32.61L222.30-32.61L222.30-32.61Q225.09-33.92 228.51-33.92L228.51-33.92L228.51-33.92Q231.94-33.92 233.63-33.18L233.63-33.18L233.63-33.18Q235.33-32.45 236.35-31.23L236.35-31.23L236.35-31.23Q238.08-28.99 238.08-24.90L238.08-24.90L238.08-24.90Q238.08-20.86 236.35-12.48L236.35-12.48L236.35-12.48Q235.46-8.38 235.46-6.88L235.46-6.88L235.46-6.88Q235.46-5.38 236.32-4.48L236.32-4.48L236.32-4.48Q237.18-3.58 238.46-3.46L238.46-3.46L238.46-3.46Q237.82-1.28 235.62 0L235.62 0L235.62 0Q233.41 1.28 230.53 1.28ZM298.11-26.56L298.11-26.56L298.11-26.56Q298.11 0.70 268.54 0.70L268.54 0.70L268.54 0.70Q263.81 0.70 256.00-0.45L256.00-0.45L263.17-38.27L263.17-38.27Q263.68-40.83 264-42.30L264-42.30L264-42.30Q273.73-43.01 278.05-43.01L278.05-43.01L278.05-43.01Q282.37-43.01 286.34-42.11L286.34-42.11L286.34-42.11Q290.30-41.22 292.93-39.23L292.93-39.23L292.93-39.23Q298.11-35.33 298.11-26.56ZM284.93-28.93L284.93-28.93L284.93-28.93Q284.93-38.46 278.08-38.46L278.08-38.46L277.44-38.46L277.44-38.46Q277.12-38.46 276.80-38.40L276.80-38.40L270.21-4.03L270.21-4.03Q270.46-3.90 270.72-3.90L270.72-3.90L271.23-3.90L271.23-3.90Q273.60-3.90 276.06-5.38L276.06-5.38L276.06-5.38Q278.53-6.85 280.45-9.86L280.45-9.86L280.45-9.86Q284.93-16.83 284.93-28.93ZM327.30-10.82L327.30-10.82L327.30-10.82Q328.90-9.73 328.90-7.33L328.90-7.33L328.90-7.33Q328.90-4.93 327.68-3.39L327.68-3.39L327.68-3.39Q326.46-1.86 324.48-0.83L324.48-0.83L324.48-0.83Q320.38 1.28 315.97 1.28L315.97 1.28L315.97 1.28Q311.55 1.28 308.96 0.32L308.96 0.32L308.96 0.32Q306.37-0.64 304.64-2.43L304.64-2.43L304.64-2.43Q301.25-5.82 301.25-12.03L301.25-12.03L301.25-12.03Q301.25-21.70 306.50-27.58L306.50-27.58L306.50-27.58Q312.13-33.92 321.92-33.92L321.92-33.92L321.92-33.92Q328.00-33.92 331.01-31.36L331.01-31.36L331.01-31.36Q333.25-29.44 333.25-26.30L333.25-26.30L333.25-26.30Q333.25-15.04 313.79-15.04L313.79-15.04L313.79-15.04Q313.54-13.38 313.54-11.97L313.54-11.97L313.54-11.97Q313.54-9.02 314.85-7.90L314.85-7.90L314.85-7.90Q316.16-6.78 318.59-6.78L318.59-6.78L318.59-6.78Q321.02-6.78 323.62-7.90L323.62-7.90L323.62-7.90Q326.21-9.02 327.30-10.82ZM314.24-17.79L314.24-17.79L314.24-17.79Q318.78-17.79 321.41-20.61L321.41-20.61L321.41-20.61Q324.03-23.30 324.03-27.58L324.03-27.58L324.03-27.58Q324.03-29.06 323.49-29.86L323.49-29.86L323.49-29.86Q322.94-30.66 321.86-30.66L321.86-30.66L321.86-30.66Q320.77-30.66 319.84-30.24L319.84-30.24L319.84-30.24Q318.91-29.82 317.95-28.42L317.95-28.42L317.95-28.42Q315.58-25.22 314.24-17.79ZM362.50 1.28L362.50 1.28L362.50 1.28Q354.75 1.28 354.75-4.74L354.75-4.74L354.75-4.74Q354.82-6.40 355.33-9.22L355.33-9.22L356.48-15.10L356.48-15.10Q358.21-23.42 358.21-25.28L358.21-25.28L358.21-25.28Q358.21-28.99 356.03-28.99L356.03-28.99L356.03-28.99Q352.38-28.99 350.46-19.46L350.46-19.46L346.69 0L333.82 1.28L340.48-32.70L350.98-33.92L349.95-27.65L349.95-27.65Q352.96-33.92 362.18-33.92L362.18-33.92L362.18-33.92Q366.66-33.92 368.54-32.03L368.54-32.03L368.54-32.03Q370.43-30.14 370.43-25.92L370.43-25.92L370.43-25.92Q370.43-21.95 368.38-12.67L368.38-12.67L368.38-12.67Q367.42-8.51 367.42-6.94L367.42-6.94L367.42-6.94Q367.42-5.38 368.29-4.48L368.29-4.48L368.29-4.48Q369.15-3.58 370.43-3.46L370.43-3.46L370.43-3.46Q369.79-1.28 367.58 0L367.58 0L367.58 0Q365.38 1.28 362.50 1.28ZM395.90-7.23L395.90-7.23L395.90-7.23Q392.58-3.78 386.50-3.78L386.50-3.78L386.50-3.78Q378.88-3.78 377.28-9.34L377.28-9.34L377.28-9.34Q376.77-11.01 376.77-12.86L376.77-12.86L376.77-12.86Q376.77-14.72 377.15-16.64L377.15-16.64L380.16-32.64L393.15-33.92L389.63-15.30L389.63-15.30Q389.50-14.46 389.31-13.57L389.31-13.57L389.31-13.57Q389.12-12.67 389.12-11.74L389.12-11.74L389.12-11.74Q389.12-10.82 389.44-10.21L389.44-10.21L389.44-10.21Q389.76-9.60 390.21-9.22L390.21-9.22L390.21-9.22Q390.98-8.70 392.35-8.70L392.35-8.70L392.35-8.70Q393.73-8.70 394.91-10.37L394.91-10.37L394.91-10.37Q396.10-12.03 396.67-14.91L396.67-14.91L400.19-32.64L412.80-33.92L408.00-8.77L408.00-8.77Q405.63 3.52 400.77 8.38L400.77 8.38L400.77 8.38Q398.27 10.88 395.04 11.87L395.04 11.87L395.04 11.87Q391.81 12.86 387.65 12.86L387.65 12.86L387.65 12.86Q380.93 12.86 377.09 10.75L377.09 10.75L377.09 10.75Q373.25 8.64 373.25 5.12L373.25 5.12L373.25 5.12Q373.25 2.50 375.23 0.99L375.23 0.99L375.23 0.99Q377.22-0.51 380.29-0.51L380.29-0.51L380.29-0.51Q382.98-0.51 385.02 0.64L385.02 0.64L385.02 0.64Q386.24 1.34 386.82 2.24L386.82 2.24L386.82 2.24Q385.34 3.52 385.34 5.63L385.34 5.63L385.34 5.63Q385.34 8.45 387.90 8.45L387.90 8.45L387.90 8.45Q392.13 8.45 394.56-1.28L394.56-1.28L394.56-1.28Q395.26-4.16 395.90-7.23ZM430.40-3.52L430.40-3.52L430.40-3.52Q428.42 1.28 422.08 1.28L422.08 1.28L422.08 1.28Q418.88 1.28 416.83-0.96L416.83-0.96L416.83-0.96Q415.17-2.82 415.17-4.93L415.17-4.93L415.17-4.93Q415.17-9.73 417.41-20.22L417.41-20.22L422.08-44.80L435.07-46.08L428.86-13.70L428.86-13.70Q427.78-8.96 427.78-7.30L427.78-7.30L427.78-7.30Q427.78-3.65 430.40-3.52Z" fill="#444"></path></g></g><style>text {
  font-size: 64px;
  font-family: Arial Black;
  dominant-baseline: central;
  text-anchor: middle;
}</style></svg>